<?xml version="1.0" encoding="UTF-8"?>
<svg id="DogReadingNewspaper_Image" data-name="DogReadingNewspaper Image" xmlns="http://www.w3.org/2000/svg" viewBox="0 0 3092.41 3084.95">
  <path fill="#333333" d="M596.11,18.02c-5.35,32.53-10.35,63.01-15.95,97.07,54.94-38.48,100.56-85.84,164.35-115.1-14.15,48.89-27.25,94.13-41.25,142.51,76.5-31.65,151.25-60.5,237.92-61.12-7.01,11.25-11.3,19.8-17.09,27.19-71.46,91.21-143.78,182.03-197.64,285.16-28.41,54.4-54.78,110.47-75.43,168.16-20.07,56.06-31.94,115.09-46.89,172.95-10.95,42.38-21.11,84.97-31.55,127.49-6.06,24.69-12.73,49.27-17.32,74.23-.99,5.37,4.16,15.04,9.21,17.85,49.36,27.47,60.24,75.37,64.33,124.83,2.82,34.09-.94,68.77-2.48,103.15-.67,14.95,8.21,24.65,27.51,27.13,20.11,2.58,40.68,3.14,60.23,7.92,19.41,4.75,37.55,14.49,56.75,20.4,9.84,3.03,21.06,4.53,31.17,3.16,19.28-2.62,37.84-2.32,55.17,6.69,18.46,9.6,21.85,26.88,19.54,47.83,6.09-.85,11.14-.82,15.69-2.31,33.94-11.13,68.57-13.16,103.39-6.47,17.65,3.39,33.77,11.09,45.03,26.5,5.24,7.17,10.74,14.48,17.51,20.05,3.77,3.1,10.52,3.96,15.62,3.32,1.8-.22,3.62-7.84,3.77-12.15,.31-8.94-.52-17.93-.82-26.9-.54-16.21,2.39-30.84,17.32-38.03-14.08-26.63-29.39-51.94-41.23-78.77-20.95-47.47-24.74-98.12-16.48-148.56,7.89-48.21,20.7-95.6,31.18-143.39,10.08-46,19.95-92.04,29.91-138.07,.6-2.76,.5-5.87,1.77-8.26,12.92-24.29,3.28-42.06-14.35-59.84-29.52-29.77-53.03-64.82-61.46-105.91-11.11-54.14-4.28-92.3,43.77-119.46,11.85-6.7,26.92-11.17,40.4-10.92,51.98,.97,98.25-15.78,144.49-37.49,36.82-17.28,72.77-9.26,102.96,19.07,7.86,7.38,15.76,14.92,22.34,23.4,8.2,10.56,17.48,12.61,29.69,8.39,29.33-10.11,58.76-19.96,88.3-29.45,39.54-12.71,79.46-24.29,121.39-24.85,50.12-.66,95.35,17.17,136.73,42.99,51.66,32.23,101.16,67.93,151.92,101.63,15.6,10.36,32.45,18.82,48.41,28.67,12.66,7.82,23.84,4.2,35.47-2.35,19.19-10.81,38.11-22.33,58.15-31.34,46.21-20.78,78.34-8.07,103.95,29.29,39.22,57.21,78.95,114.09,117.7,171.61,16.24,24.1,21.53,51.66,14.46,79.88-9.04,36.08-35.28,45.84-69.51,48.33-11.62,.85-23.36,.13-37.01,.13-1.35,12.05-1.52,22.84-3.9,33.12-11.05,47.62-19.98,95.97-34.89,142.38-16.95,52.77-28.71,106.29-36.96,160.81-6.55,43.3-17.91,84.58-47.21,118.82-1.81,2.12-3.18,4.66-4.52,7.14-1.08,2-1.81,4.2-1.93,4.49,9.88,6.34,23.01,10.16,26.85,18.35,5.37,11.47,6.59,26.6,4.66,39.42-4.19,27.89-14.07,55.04-16.89,82.98-3.78,37.46-4.76,75.41-3.82,113.07,.84,33.35-6.47,61.29-34.4,81.83-3.57,2.63-5.09,8.04-7.57,12.16,4.94,1.81,10.66,6.21,14.68,4.99,18.32-5.58,36.67-11.61,54.08-19.52,100.9-45.89,197.01-100.85,293.42-155.31,71.07-40.14,143.3-78.21,215.03-117.17,1.57-.85,3.37-1.3,8.46-3.21-7.1,18.79-12.67,35.23-19.44,51.15-27.68,65.04-64.4,125.15-101.31,185.19-27.03,43.96-51.48,89.57-79.9,132.58-31.76,48.07-66.76,94-100.22,140.96-9.54,13.39-18.96,26.9-27.62,40.86-1.86,3.01-2,9.83,.1,12.14,31.2,34.35,26.45,72.92,12.1,111.48-8.22,22.08-21.7,41.51-41.61,55.9-4.23,3.06-7,10.78-7.13,16.42-.68,30.8-9.26,58.46-29.89,81.73-12.05,13.6-27.82,21.58-45.47,23.43-12.92,1.35-15.91,8.37-18.15,18.94-5.71,26.94-16.27,51.94-41.28,66.04-13.05,7.36-28.67,10.87-43.58,13.96-9.66,2-15.82,3.89-18.88,14.84-21.91,78.31-45.15,156.25-66.82,234.63-14.05,50.81-25.83,102.24-39.3,153.21-9.01,34.08-18.83,67.96-29.29,101.62-1.77,5.68-7.68,12.14-13.21,14.28-82.36,31.88-164.92,63.24-247.55,94.39-32.06,12.08-64.07,24.47-96.75,34.65-37.72,11.75-76.33,20.58-114.22,31.85-31.97,9.51-63.49,20.53-95.12,31.13-64.44,21.6-130.28,32.32-197.66,19.23-25.55-4.96-50.01-16.09-74.55-25.51-33.74-12.96-67.26-26.53-100.55-40.61-55.74-23.59-110.96-48.43-166.89-71.58-68.56-28.38-137.22-56.62-206.61-82.87-45.65-17.27-92.34-32.05-139.15-45.95-76.07-22.57-154.05-36.29-232.68-46.58-5.83-.76-13.17-5.11-16.19-10.01-31.87-51.81-54.68-107.89-75.43-164.84-14.8-40.61-30.73-80.9-43.34-122.19-16.61-54.38-31.82-109.28-45.06-164.57-9.75-40.71-14.25-82.66-23.08-123.63C-1.56,2097.03-1.36,2012.05,1.32,1927.2c1.59-50.34,8.82-100.56,14.74-150.69,5.48-46.36,12.05-92.62,19.14-138.76,6.8-44.28,14.9-88.36,22.41-132.53,12.47-73.43,24.36-146.96,37.57-220.25,9.27-51.45,19.79-102.7,30.73-153.83,19.8-92.56,41.4-184.74,60.18-277.5,13.93-68.8,24-138.38,36.96-207.39,7.38-39.3,15.85-78.5,26.09-117.14,12.04-45.44,23.69-91.37,40.92-134.94,12.75-32.24,32.37-62.26,52.08-91.12,35.15-51.46,71.56-102.15,109.52-151.55,38.79-50.47,84.42-94.47,136.88-130.98,1.44-1,3.46-1.18,7.57-2.51Zm595.45,2962.26l-4.27-.68c0-5.04-.35-10.1,.05-15.11,4.49-55.5,8.31-111.07,13.87-166.47,7.11-70.9,14.9-141.74,23.81-212.44,7.9-62.67,13.95-125.94,27.69-187.41,15.66-70.09,36.28-139.38,59.51-207.4,33.54-98.19,75.05-193.32,123.13-285.44,7.46-14.29,14.08-29.01,21.93-45.29-15.14-2.19-27.78-3.43-40.18-5.91-52.2-10.44-104.66-19.84-156.4-32.27-68.63-16.48-136.98-34.31-204.84-53.69-49.7-14.19-98.62-31.22-147.53-48.03-86.67-29.79-173.07-60.35-259.57-90.64-22.9-8.02-45.75-16.19-69.36-24.56-10.68,24.01-20.47,46.33-30.51,68.54-33.28,73.59-68.99,146.19-99.28,221-27.67,68.33-51.86,138.3-73.28,208.85-25.94,85.47-48.13,172.11-70.47,258.63-16.92,65.52-32.64,131.41-46.83,197.57-11.04,51.5-18.98,103.66-28.09,155.57-1.6,9.12-2.19,18.43-3.25,27.73,34.56,4.73,68.12,9.12,101.61,13.94,73.92,10.65,145.42,30.94,215.74,55.44,42.57,14.83,84.71,30.94,126.72,47.32,59.53,23.22,119.14,46.29,177.99,71.14,57.47,24.27,113.59,51.76,171.14,75.83,41.13,17.2,83.21,32.48,125.69,46.01,32.52,10.35,66.33,15.14,100.25,3.64,18.24-6.18,36.57-12.09,55.02-17.61,87.87-26.29,176.45-50.41,263.51-79.13,95.96-31.65,190.6-67.31,285.65-101.66,16.03-5.79,31.61-11.86,35.47-33.11,4.11-22.59,12.77-44.31,18.28-66.7,15.19-61.7,29.27-123.68,44.74-185.31,12.83-51.1,26.95-101.88,40.61-152.77,3.78-14.07,8.38-27.92,11.83-42.06,2.46-10.09-3.92-14.54-11.79-9.92-9.31,5.46-18.05,13.21-24.51,21.86-8.62,11.54-13.67,25.75-22.25,37.33-30.69,41.46-62.63,82-93.23,123.53-10.61,14.4-18.69,30.67-27.93,46.09-1.42-.64-2.83-1.28-4.25-1.92,10.77-25.26,19.29-51.82,32.84-75.49,20.45-35.74,44.76-69.26,66.74-104.16,11.26-17.87,21.01-36.69,31.44-55.07-1.45-1.51-2.9-3.02-4.35-4.53-9.6,5.18-19.74,9.57-28.66,15.73-13.43,9.26-25.3,20.88-39.07,29.54-56.45,35.51-111.28,73.08-160.87,117.96-48.28,43.69-91.12,91.49-120.02,150.64-4.7,9.63-12.1,17.94-18.25,26.85-1.15-.66-2.3-1.32-3.45-1.98,.18-2.25-.21-4.75,.63-6.72,12.21-28.39,22.43-57.9,37.35-84.81,36.97-66.72,93.41-115.63,153.94-160.03,47.25-34.65,95.25-68.28,142.51-102.91,4.11-3.01,8.6-11.44,7.18-15.17-23.31-61.23,11.18-119.43,67.49-139.3,11.02-3.89,11.4-8.39,9.07-18.59-6.63-29.01-10.19-57.92,15.49-81.29,18.41-16.76,23.55-39.49,24.1-62.95,1.09-46.74,.3-93.52,1.63-140.25,.58-20.45,4.45-40.81,6.83-61.2,4.28,3.2,5.55,6.23,5.84,9.35,2.52,27.71,5.45,55.41,7.13,83.18,2.45,40.52,3.75,81.11,6.14,121.64,.26,4.45,4.44,8.68,6.8,13.01,2.96-4.6,7.24-8.87,8.53-13.9,1.61-6.25,.14-13.22,1.05-19.73,8.14-58.11,26.75-76.92,76.07-90.17,10.99-2.95,18.57-7.85,23.52-17.66,6.33-12.53,12.44-25.18,19.22-37.47,25.33-45.93,50.85-91.76,76.47-137.53,1.49-2.66,4.53-4.44,9.46-9.09-16.55,74.8-56.85,134.96-86.72,197.91,14.56,5.05,27.43,8.22,39.05,13.94,10.13,4.98,15.19,3.68,21.58-5.87,49.03-73.22,100.89-144.64,147.5-219.35,49.64-79.55,94.51-162.07,141.39-243.33,3.03-5.25,5.47-10.83,9.14-18.18-57.23,34.34-111.49,67.71-166.56,99.69-52,30.2-104.13,60.34-157.55,87.91-56.24,29.02-113.95,55.2-171.24,82.16-54.1,25.46-108.73,49.14-168.53,58.9-55.31,9.03-110.72,18.25-165.3,30.78-74.75,17.16-148.78,37.44-223.02,56.74-4.34,1.13-9.44,4.6-11.49,8.43-28.2,52.52-58.2,104.24-83.27,158.24-44.19,95.21-78.1,194.28-105.97,295.65-22.09,80.35-35.34,161.96-44.89,244.4-5.81,50.16-10.17,100.5-16.49,150.59-6.55,51.91-13.5,103.82-22.52,155.33-6.11,34.91-16.1,69.13-24.36,103.66Zm-59.44-2256.34c-9.55,42.66-18.92,83-27.56,123.5-13.26,62.14-28.59,123.98-38.32,186.68-11.28,72.69,1.2,141.41,47.8,201.63,36.02,46.55,83.57,74.1,139.28,89.39,51.29,14.08,103.96,17.17,156.72,20.67,74.85,4.97,149.93,8.91,224.25,18.47,58.66,7.55,116.75,21.13,174.31,35.24,88.41,21.67,177.99-19.1,226-88.41,22.31-32.21,31.77-69.16,37.29-106.85,11.19-76.32,34.05-149.16,58.95-221.85,10.73-31.31,12.81-65.58,18.7-97.84-19.01,2.2-34.87,6.22-50.45,5.31-23.72-1.39-44.25-14.75-40.5-43.41,2-15.25,8.97-29.85,10.93-45.1,4.8-37.41,3.62-74.33-21.65-105.57-8.79-10.86-18.61-21.41-29.72-29.77-40.41-30.39-81.38-60.05-122.48-89.51-61-43.72-123.06-85.77-190.33-119.57-39.49-19.84-80.11-29.2-124.23-18.12-32.86,8.25-66.44,13.76-99.06,22.81-48.95,13.58-97.86,28.87-140.82,56.52-37.36,24.04-71.58,52.9-108.11,78.32-22.95,15.97-33.6,36.69-34.04,64.17-.21,13.12-1.99,26.36-4.42,39.28-4.93,26.24-20.54,35.19-46.28,27.7-4.84-1.41-9.84-2.26-16.27-3.71Zm-872.83-121.91c-.75,.03-1.5,.05-2.26,.08-7.57,40.56-15.32,81.09-22.66,121.7-13.16,72.8-25.22,145.8-39.32,218.41-16.07,82.78-33.82,165.22-50.91,247.8-12.5,60.4-26.28,120.57-37.36,181.23-11.52,63.04-20.24,126.59-30.61,189.84-11.06,67.44-21.66,134.98-34.25,202.14-13.71,73.16-18.09,146.66-17.15,221.02,.87,68.61,6.01,136.41,17.1,204.19,12.44,76,30.2,150.65,54.47,223.39,28.85,86.48,61.97,171.54,93.44,257.14,4.42,12.03,9.92,23.66,16.13,38.34,1.27-5.1,1.77-6.43,1.91-7.8,8.7-84.53,27.03-167.24,46.78-249.7,8.89-37.08,16.42-74.52,26.38-111.3,17.57-64.9,35.66-129.69,55.17-194.03,17.31-57.11,35.83-113.9,55.68-170.17,19.97-56.62,40.63-113.1,63.95-168.4,25.5-60.46,52.52-120.45,82.53-178.76,16.64-32.32,12.38-54.67-9.78-82.97-50.76-64.83-82.97-140.56-109.88-217.68-28.78-82.5-52.5-166.76-78.9-250.1-26.36-83.19-46.77-167.64-60.22-253.97-10.42-66.84-16.08-133.92-18.57-201.4-.23-6.34-1.1-12.66-1.68-18.99ZM888.62,111.85c-8.92,1.25-13.47,1.5-17.83,2.57-20.56,5.05-41.18,9.89-61.55,15.63-32.65,9.19-64.39,20.42-93.69,38.33-73.38,44.86-139.47,99.08-201.31,158.3-70.06,67.09-134.7,138.37-181.84,224.92-40.36,74.1-41.68,151.2-31.71,230.85,3.45,27.52,8.2,54.91,13.42,82.16,8.13,42.46,15.27,85.25,26.31,126.98,13.08,49.47,29.54,98.06,45.09,146.85,18.83,59.08,37.69,118.16,57.69,176.84,6.95,20.4,17.33,39.64,26.14,59.41,.78-.38,1.56-.76,2.34-1.14,8.39-75.47,16.78-150.94,25.24-226.98-15.29-1.57-31.65-2.75-47.87-5.01-45.96-6.41-74.76-43.36-70.89-89.59,5.49-65.59,57.8-102.08,113.85-110.57,10.67-1.62,24.48,1.13,31.34-4.66,7.05-5.94,7.89-19.74,10.54-30.32,14.05-56.04,27.3-112.29,41.82-168.21,15.01-57.83,28.51-116.26,47.44-172.83,26.42-78.97,59.92-155.52,104.11-226.25,44.5-71.23,88.3-143.37,147.82-203.95,5.2-5.3,7.78-13.17,13.55-23.33Zm996.41,1358.71c-19.81,69.05-11.96,138.85-39.68,205,33.82,1.01,65.63,4.55,97.32-1.92,4.42-.9,9.09-5.24,11.75-9.25,12.42-18.75,24.25-37.89,36.08-57.01,1.56-2.52,1.93-5.77,2.85-8.68,1.81,1.45,3.63,2.89,5.45,4.34-3.51,19.27-7.01,38.54-11.18,61.45,8.54-4.22,15.06-6.39,20.36-10.25,20.71-15.05,22.86-38.07,23.75-60.75,1.36-34.92,.49-69.93,2.25-104.82,1.46-29.06,3.69-57.96,22.31-83.34,5-6.82,3.86-21.65-.14-30.12-2.06-4.36-17.81-6.08-25.27-3.32-18.55,6.86-35.89,16.99-54.95,26.41,19.81,25.97,18.59,51.79,7.16,77.89-12.39,28.32-25.73,56.22-38.19,84.51-11.2,25.42-21.76,51.12-32.61,76.7-2.99-4.91-3.4-9.4-3.55-13.9-1.23-36.29,9.1-69.45,25.68-101.45,9.86-19.03,18.09-39.11,24.96-59.43,6.79-20.09,.91-37.79-8.49-44.76-27.55,4.71-51.32,10.51-75.4,12.54-49.2,4.15-96.27-9.97-143.74-19.92-24.2-5.07-48.42-10.09-73.98-15.41-4.4,35.26-14.08,65.91-31.65,93.91-17.09,27.23-33.52,54.87-52.45,85.94,1.2-6.51,1.32-8.87,2.07-11,11.99-34.05,24.16-68.04,36.09-102.12,7.74-22.11,16.31-44.14,12.62-69.33-8.6-1.14-16.91-2.84-25.29-3.26-34.12-1.69-29.68-7.08-34.36,26.92-.38,2.79-.72,5.64-1.57,8.31-13.67,42.48-27.19,85.01-41.34,127.33-3.36,10.05-8.94,19.35-13.49,28.99-1.58-.46-3.15-.92-4.73-1.39,2.91-21.36,4.75-42.93,8.95-64.03,7.62-38.3,16.44-76.37,25.19-114.43,2.78-12.11-.72-16.91-13.48-17.95-79-6.47-158.04-12.62-236.86-20.9-36.51-3.83-72.11-13.65-105.08-30.94-7.7-4.04-15.37-8.15-26.93-14.28,0,18.67-1.17,34.04,.23,49.18,3.38,36.3,6.95,72.45-7.17,107.47-5.21,12.92-10.73,25.8-22.47,33.9,2.15-17.21,4.95-33.33,6.03-49.57,3.25-48.87-4.22-98.28,7.72-146.77,2-8.14-14.56-24.81-24.01-25.14-15.58-.55-12.12,11.45-12.34,20.12-1.19,47.14-7.91,92.89-31.48,134.81-9.85,17.52-20.08,34.9-28.64,53.05-7.5,15.9-3.85,26.73,10.23,36.95,5.65,4.1,11.81,7.7,18.14,10.64,63.72,29.65,131.6,41.02,201,47.29,53.45,4.83,107.43,8.96,159.73,20.12,55.41,11.83,109.29,31.11,163.54,48.07,40.37,12.62,80.79,21.42,123.64,17.11,25.23-2.54,50.82-1.26,76.19-2.68,5.38-.3,11.69-3.76,15.55-7.73,16.84-17.29,22.33-39.66,26.49-62.6,5.28-29.15,10.08-58.46,17.19-87.18,3.94-15.91,10.34-32,30.04-43.33Zm-897.93,246.96c8.09,3.1,13.15,5.52,18.46,7,72.05,20.02,143.9,40.8,216.3,59.5,50.1,12.94,100.87,23.33,151.5,34.14,30.82,6.58,61.79,12.97,93,17.09,14.02,1.85,29.11-.65,43.17-3.7,22-4.77,43.39-12.28,65.29-17.57,34.74-8.39,69.76-15.62,104.53-23.9,24.7-5.88,48.95-13.85,73.82-18.84,60.93-12.22,122.36-22.07,183.04-35.37,22.05-4.83,42.56-16.74,65.42-26.1-12.01-14.7-24.07-12.84-36.26-11.99-29.06,2.04-58.15,4.93-87.23,4.96-63.08,.07-125.83-8.11-189.36-.76-46.48,5.38-90.54-13.56-134.32-28.32-39.63-13.36-78.82-30.09-119.62-37.43-67.63-12.17-136.34-18.5-204.71-26.36-57.75-6.64-114.83-15.35-167.62-41.61-6.37-3.17-10.56-2.14-13.45,4.64-20.43,47.83-40.96,95.63-61.96,144.6Zm-166.3-307.38c-2.95-4.23-4.18-5.58-4.95-7.15-12.11-24.59-.91-44.5,12.85-63.94,7.8-11.03,16.6-21.56,22.86-33.42,8.33-15.77,4.94-26.06-9.51-38.18-12.29-10.31-28.39-12.15-40.32-3.46-7.08,5.16-13.93,11.19-19.31,18.07-35.07,44.79-57.11,95.63-66.97,151.47-4.74,26.84-9.24,53.8-2.16,81.39,9.7,37.81,34.59,51.07,70.72,37.4,16.18-6.12,34.29-14.13,50.57-5.24,12.87,7.03,23.31,19.57,32.93,31.23,11.54,13.97,23.49,25.93,41.26,32.15,30.09,10.52,59.62,5.58,89.29-.7,2.55-.54,5.43-3.41,6.6-5.92,7.94-17.04,15.84-34.13,22.79-51.58,1.26-3.15-1.04-8.57-3.15-12.07-9.94-16.53-15.64-33.71-6.76-52.23,7.86-16.39,17.17-32.08,25.57-48.22,9.91-19.03,19.89-38.04,29.1-57.41,3.62-7.61,0-11.68-8.16-15.72-9.93-4.92-18.23-13.51-26.48-21.31-5.36-5.07-8.78-12.16-14.07-17.32-21.21-20.71-48.42-21.61-75.34-20.36-58.02,2.7-103.05,24.13-118.12,86.35-1.26,5.21-5.45,9.7-9.25,16.2Zm-257.78-343.08c5.76,19.24-4.3,29.68-12.72,41.4-8.61,11.99-19.27,24.53-22.11,38.26-7.63,36.83-12.19,74.35-16.76,111.74-3.94,32.27-6.14,64.75-9.29,97.12-.83,8.47,1.6,13.9,9.96,17.76,13.15,6.07,25.39,14.11,38.47,20.33,10.59,5.04,21.86,8.64,30.71,12.06,6.92-31.77,10.47-61.5,20.22-89.03,9.91-27.98,25.95-53.79,39.41-80.76-2.67-1.42-6.41-3.28-10.03-5.36-15.85-9.08-17.51-8.6-28.83,5.58-3.2,4.01-7.68,7.01-11.58,10.47,.41-17.89,3.85-33.74,6.95-49.65,11.27-57.91,11.11-115.11-9.7-171.31-13.4-36.17-44.99-61.32-79.11-62.81-47.43-2.07-90.78,37.31-99.39,83.88-5.5,29.77,4.09,51.76,27.64,63.42,27.56,13.65,80.16,15.22,108.93-22.55,4.92-6.45,10.42-12.46,17.23-20.55Zm-62.05,331.01c-1.91,22.11-.3,40.9,6.09,59.14,12.47,35.62,35.29,64.81,58.67,93.68,26.69,32.95,65.36,44.14,102.92,57.26,70.94,24.77,142.05,49.08,213.02,73.76,26.48,9.21,52.79,18.93,81.63,29.3,8.76-23.08,17.11-45.11,26.05-68.66-21.33,0-39.76,1.39-57.9-.31-31.77-2.97-60.92-12.74-80.17-40.83-20.98-30.62-26.24-32.01-61.99-23.23-37.47,9.2-85.96-4.04-100.73-52.26-1.37-4.46-5.37-9.12-9.43-11.58-13.57-8.21-27.67-15.55-41.66-23.04-22.37-11.97-45.39-22.97-54.97-49.47-1.26-3.48-6.85-5.74-10.81-7.84-12-6.35-24.2-12.35-36.31-18.49-10.66-5.4-21.32-10.8-34.39-17.42Zm-179.28-870.1c21.53-31.7,41.97-64.22,64.8-94.95,73.57-99.05,163.41-181.37,263.5-252.93,5.71-4.08,11.9-9.39,14.53-15.55,11.22-26.36,21.33-53.2,31.53-79.98,4.34-11.39,7.89-23.07,11.79-34.62-1.33-.62-2.66-1.24-3.99-1.86-165.02,130.01-305.22,279.94-382.16,479.91Zm1768.17,1545.56c-41.77-.67-67.33,19.58-78.59,58.75-8.85,30.8,2.56,48.07,33.66,50.32,28.77,2.08,55.23,8.81,76.41,30.57,19.37,19.9,24.36,20.08,49.51,8.13,41.87-19.89,53.16-68.92,21.53-100.35-29.2-29.02-65.26-45.15-102.54-47.42Zm-52.57,127.65c-42.88,3.26-72.11,15.52-92.82,43.15-16.6,22.14-14.1,46.53-3.55,69.77,9.34,20.58,27.44,29.57,49.89,26.88,21.44-2.57,42.6-7.76,64.07-9.81,23.75-2.26,40.55-14.41,53.09-33.14,20.85-31.15,14.28-67.19-16.85-82.26-16.44-7.96-35.79-9.92-53.83-14.59ZM765.14,1265.94c-10.32-3.84-19.48-7.02-28.47-10.65-9.57-3.87-18.73-8.84-28.46-12.18-29.99-10.3-45.3-4.47-61.09,22.72-4.69,8.08-9.35,16.23-13.3,24.69-16.62,35.65-29.24,72.4-29.19,112.39,.06,46.11,43.13,78.59,80.14,77.79,7.89-44.12,9.64-44.22-27.12-59.36-10.47-4.31-19.4-12.37-29.03-18.71,.89-1.79,1.79-3.58,2.68-5.37,15.36,5.02,30.97,9.41,45.99,15.29,8.63,3.38,12.54,2.67,15.22-6.93,4.29-15.38,9.12-30.73,15.29-45.43,14.93-35.62,18.13-26.95-17.02-49.33-12.96-8.25-25.87-16.59-38.81-24.89l1.86-3.28c2.23,.43,4.5,.7,6.67,1.31,23.05,6.52,46.04,13.28,69.18,19.45,3.21,.86,8.84,.23,10.5-1.91,8.52-11.02,16.11-22.76,24.96-35.61Zm1413.07,683.27c-51.46-1.2-80.6,35.48-79.59,85.11,.08,4.01,6.2,10.55,10.42,11.4,31.69,6.34,58.43,22.5,84.18,40.72,31.92,22.59,31.79,22.77,57.11-7.75,28.96-34.9,28.72-76.26-1.32-102.11-20.2-17.38-43.97-26.63-70.79-27.37ZM292.85,520.13l4.43,1.2c2.28-5.61,4.89-11.12,6.8-16.85,19.24-57.79,45.58-112.18,79.4-162.78,33.87-50.69,67.23-102.72,115.28-140.94,42.78-34.03,55.42-79.19,61.57-129.93-2.7,2.54-5.25,4.51-7.28,6.91-31.17,36.85-63.74,72.64-93.01,110.94-35.54,46.51-68.19,95.23-102.28,142.86-16.93,23.66-36.52,46.1-42.98,75.28-8.31,37.55-14.71,75.53-21.93,113.32Zm1042.37-27.82c-.77-1.58-1.54-3.17-2.31-4.75-20.06-4.14-39-2.47-53.83,13.91-11.92,13.17-23.04,27.08-34.15,40.96-3.29,4.11-5.33,9.22-7.94,13.88,.65,.36,1.31,.73,1.96,1.09,32.09-21.7,64.18-43.39,96.27-65.09Zm741.97,115.36c-1.1-1.48-2.19-2.96-3.29-4.44-16.05,8.45-32.09,16.91-49.25,25.95,12.9,13.4,24.24,25.18,37.1,38.53,5.7-22.17,10.57-41.11,15.44-60.05Z"/>
  <path d="M2829.82,2482.14c-1.85,24.21-4.13,49.32-5.56,74.48-1.06,18.7-5.67,36.47-21.79,46.67-16.48,10.42-34.41,19.92-53.02,25.32-75.71,22-153.22,27.64-231.28,17.31-44.72-5.92-89.12-14.66-128.95-38.64-21.66-13.04-30.81-32.59-32.7-55.96-11.18-138.06-10.77-276.32-6.28-414.63,.59-18.14,1.65-36.33,.95-54.44-1.23-32.01,18.6-49.78,42.35-64.83,41.06-26.02,87.51-33.13,134.73-37.28,91-8.01,179.8,4.03,266.9,29.99,13.8,4.11,27.06,10.97,39.56,18.29,19.4,11.37,28.98,28.92,27.57,51.86-.17,2.67-.02,5.36-.02,9.58,35.53-15.74,71.27-22.88,108.47-20.42,27.84,1.84,55.08,6.92,79.69,21.28,32.54,18.99,44.53,48.49,41.53,84.58-4.88,58.58-32.89,102.57-84.49,131.58-17.94,10.09-35.07,21.67-52.3,32.98-26.74,17.56-42.44,40.66-38.06,74.55,3.95,30.57-18.48,60.91-44.66,67.26-11.73,2.84-24.72,.48-42.63,.48Zm5.99-365.29c-2.95,1.31-5.21,1.84-6.89,3.13-34.84,26.6-75.46,38.03-117.96,41.88-37.37,3.39-75.11,5.06-112.62,4.24-69.55-1.52-138.15-9.36-201.37-42.32-15.13-7.88-18.3-5.3-19.12,12.16-5.56,118.4-11.66,236.8-4.66,355.36,.95,16,2.91,31.94,4.46,47.9,3.96,40.84,27.41,63.06,66.05,74.38,44.94,13.17,90.71,17.44,136.96,18.19,57.65,.92,115.44-.21,170.68-19.45,35.12-12.23,51.55-24.71,55.41-59.71,4.81-43.63,8.92-87.35,12.2-131.12,6.06-80.98,11.56-162,16.68-243.05,1.27-20.07,.19-40.29,.19-61.59Zm23.18,105.94c2.17,.44,4.34,.88,6.51,1.32,3.19-7.14,6.82-14.12,9.47-21.46,3.67-10.15,6.15-20.75,9.96-30.84,10.76-28.5,27.68-37.76,64.02-35.7,38.07,2.16,63.95,37,55.97,74.01-6.12,28.4-24.26,47.43-47.16,62.36-23.13,15.09-47.41,28.41-71.12,42.64-30.59,18.36-47.91,44.16-46.02,81.15,.72,14.13,1.27,28.44-.19,42.45-1.57,15.1,6.84,18.85,18.66,20.38,11.06,1.44,20.05-2.94,24.35-12.83,4.24-9.75,8.07-20.37,8.82-30.85,3.14-43.69,21.42-77.75,59.12-101.16,16.7-10.37,32.72-21.87,48.75-33.29,29.78-21.21,56.45-44.3,65.42-82.79,8.69-37.27,1.82-64.81-30-82.86-45.41-25.75-94.06-28.82-143.06-9.94-16.85,6.49-31.37,18.79-32.95,37.48-2.24,26.47-.57,53.27-.57,79.93Zm-469.61-147.49c-.84,13.53,8.63,20.48,18.41,24.41,6.72,2.7,16.26,1.71,23.47-.77,17.68-6.09,34.11-17.18,52.13-20.63,106.62-20.44,211.81-15.53,314.61,22.03,3.98,1.46,10.41,.41,14.02-2,24.97-16.64,24.23-33.48-1.74-49-4.42-2.64-8.95-5.6-13.83-6.86-34.97-9.01-69.83-18.66-105.14-26.11-61.49-12.97-123.83-13.34-185.94-6.21-29.25,3.35-58.96,8.54-84.69,24.74-15.1,9.5-29.79,20.15-31.28,40.42Zm462.66,236.27c29.72-18.25,56.15-35.06,83.15-50.9,25.82-15.14,38.6-38.06,40.89-66.86,1.41-17.8-9.29-30.23-26.67-34.62-16.42-4.16-33.98,2.34-40.45,17.32-6.47,14.98-11.78,30.73-15.28,46.65-4.52,20.56-11.75,37.02-35.94,37.35-1.27,9.23-2.52,17.13-3.4,25.07-.9,8.11-1.45,16.26-2.29,25.98Z"/>
  <path d="M891.05,2062.93c-52.96,149.18-105.92,298.35-158.89,447.53-1.08-.23-2.16-.45-3.25-.68,1.27-12.59,1.71-25.33,3.94-37.75,10.93-60.72,25.18-120.68,47.07-178.44,22.93-60.52,46.55-120.8,71.47-180.51,7.93-19,20.98-35.86,31.69-53.69,2.65,1.18,5.31,2.36,7.96,3.54Z"/>
  <path d="M1439.67,769.67c-3.75,57.86-22.94,108.17-61.36,150.72-37.41,41.43-83.84,57.56-137.76,41.62-40.33-11.91-60.88-35.07-65.77-78.82-4.02-36.02,3.34-70.61,17.03-103.57,17.37-41.83,40.44-80.21,76.18-109.38,67.83-55.37,147.57-11.1,161.59,50.07,3.75,16.36,6.74,32.9,10.08,49.35Zm-35.86-37.66c-3.93,0-5.97-.51-7.62,.08-24.64,8.74-51.31,14.13-73.36,27.26-36.87,21.96-71.57,47.87-105.7,74.06-28.28,21.7-20.41,57.05-2.34,77.75,31.86,36.49,91.22,39.63,130.99,5.08,56.32-48.92,64.51-113.64,58.03-184.23Zm-12.23-18.81c-17.23-38.96-61.83-54.43-97.21-33.66-32.34,18.99-52.7,48.71-69.2,81.21-6.97,13.72-11.81,28.52-17.61,42.83,1.34,1,2.68,1.99,4.02,2.99,50.75-48.41,110.72-79.04,180.01-93.37Z"/>
  <path d="M1638.7,875.62c.89-54.71,12.8-100.32,41.9-140.84,23.62-32.87,69.81-36.83,96.8-29.69,32.74,8.65,56.92,30.04,79.49,53.6,22.24,23.2,47.44,44.56,65.16,70.88,29.95,44.47,16.05,103.73-28.77,132.78-58.34,37.81-121.3,49.89-188.52,26.36-36.66-12.83-54-42.15-62.12-77.81-3.01-13.24-3.1-27.15-3.96-35.28Zm131.25,96.17c36.26,.89,70.06-8.73,101.07-26.62,27.43-15.83,47.91-37.79,42.7-72.84-4.96-33.35-21.66-57.55-57.93-47.14-11.22,3.22-24.44,1.04-36.51-.52-43.2-5.6-82.44-21.94-118.54-46.04-7.57-5.05-13.22-6.44-17.03,4.38-6.37,18.08-15.51,35.4-19.94,53.9-8.9,37.22-6.36,73.61,20.33,103.91,22.59,25.64,53.15,31.95,85.85,30.97Zm87.46-170.35c.94-1.35,1.89-2.71,2.83-4.06-14.73-15.31-28.16-32.21-44.48-45.58-25.96-21.27-55.87-34.42-89.92-22.13-9.31,3.36-15.76,14.63-23.52,22.28,5.69,5.04,11.25,10.24,17.12,15.05,2.49,2.04,5.63,3.31,8.51,4.86,40.48,21.82,83.25,33.42,129.46,29.58Z"/>
  <path d="M1493.72,1141.17c32.37,19.34,66.29,39.6,103.51,61.84-31.87-.2-55.42-12.98-79.9-23.34-26.67-11.29-53.43-23.08-81.21-30.85-24.5-6.85-49.62-4.8-69.95,14.63-2.01,1.92-5.44,2.35-8.74,3.69,.65-16.96,11.37-31.23,29.51-33.45,25.03-3.06,50.56-4.05,75.73-2.87,11.23,.53,16.67-1.39,17.07-11.72,.73-18.81,.81-37.69,.05-56.5-.4-9.72-5.57-15.12-16.9-16.7-64.03-8.89-89.25-76.22-68.2-122.18,11.4-24.9,33.2-36.86,57.2-44.27,46.18-14.25,91.35-11.79,132.81,15.53,10.8,7.11,21.49,15.58,29.41,25.64,22.51,28.58,3.33,79.07-32.29,87.02-12.3,2.75-23.08,.64-31.53-10.18-9.23-11.82-21.84-14.67-33.47-8.76-10.16,5.17-16.46,19.02-12.16,31.68,3.29,9.68,2.22,18.3,.91,27.97-2.65,19.59-2.81,39.5-4.93,59.18-1.14,10.54-4.22,20.88-6.92,33.63Zm81.17-161.51c27.34-17.43,24.17-37.35,6.21-54.26-35.53-33.48-94.99-43.93-137.49-19.44-27.2,15.68-38.71,43.23-31.63,74.61,4.68,20.76,26.47,37.19,51.49,39.31,8.95,.76,14.28-.25,13.23-11.72-1.76-19.27,8.02-32.29,25.46-39.69,26.36-11.19,50.55-6.76,72.72,11.19Z"/>
  <path d="M1708.73,633.59c-2.43-17.95,2.66-24.25,19.35-27.9,25.21-5.52,47.51,2.09,65.17,18.77,18.74,17.7,34.55,38.51,51.64,57.96-1.6,1.75-3.2,3.51-4.8,5.26-8.45-6.23-16.81-12.59-25.38-18.65-16.74-11.85-32.93-24.68-50.6-34.97-17.19-10.02-36.18-8.65-55.39-.46Z"/>
  <path d="M1277.29,640.65c6.73-31.29,24.03-55.12,52.51-67.98,16.2-7.32,35-9.99,52.95-12.01,16.9-1.9,23.73,8.42,19.96,27.12-56.27-17.46-88.76,22.15-125.42,52.87Z"/>
  <path d="M1793.38,1047.39c-45.04,22.06-89.4,21.9-131.23-7.93-8.78-6.26-13.97-18.23-19.15-28.42-1.5-2.94,2.8-8.83,4.44-13.36,3.62,2.03,8.33,3.2,10.69,6.21,30.63,39.1,74.29,53.79,121.78,40.7,4.17-1.15,8.66-1.1,13.01-1.61,.16,1.47,.31,2.94,.47,4.41Z"/>
  <path d="M1200.37,997.07c33.68,14.17,66.51,8.14,99.39,1.45-1.01,17.83-21.65,29.98-49.9,30.05-28.54,.08-47.88-11.76-49.48-31.5Z"/>
  <path d="M1555.96,862.84c-29.41-22.62-59.74-32.43-94.9-18.11,7.34-16.97,33.72-25.29,59.2-19.76,23.9,5.19,36.25,17.44,35.7,37.87Z"/>
  <path d="M1491.2,1218.38c-22.33-11.46-45.33-17.81-70.33-9.58,1.62-14.41,18.97-25.03,36.04-23.05,22.92,2.65,35.79,14.55,34.29,32.64Z"/>
  <path d="M1555.85,806.44h-60.16c3.52-16.1,18.5-23.72,36.76-20.81,16.25,2.58,24.36,10.53,23.4,20.81Z"/>
  <path d="M179.92,1888.47c-51.7-192.77-66-387.05-22.63-583.67-10.87,195.35,7.5,389.45,22.63,583.67Z"/>
  <path d="M1271.25,896.7c.33,11.77-7.88,20.4-19.8,20.84-11.01,.4-18.89-6.66-19.35-17.35-.51-11.86,7.52-21.12,18.84-21.75,11.75-.65,19.99,6.76,20.31,18.26Z"/>
  <path d="M1744.13,932.79c-.04,11.07-9.22,20.46-20.14,20.6-11.03,.14-20.58-9.58-20.37-20.71,.2-10.21,10.55-19.59,21.83-19.76,10.68-.16,18.72,8.4,18.68,19.88Z"/>
</svg>